<?xml version="1.0" encoding="UTF-8"?>
<svg width="56px" height="56px" viewBox="0 0 56 56" version="1.1" xmlns="http://www.w3.org/2000/svg" xmlns:xlink="http://www.w3.org/1999/xlink">
    <!-- Generator: Sketch 54 (76480) - https://sketchapp.com -->
    <title>头像</title>
    <desc>Created with Sketch.</desc>
    <defs>
        <linearGradient x1="40.6808036%" y1="27.3367746%" x2="69.077846%" y2="100%" id="linearGradient-1">
            <stop stop-color="#FF5858" offset="0%"></stop>
            <stop stop-color="#FFAE95" offset="100%"></stop>
        </linearGradient>
        <circle id="path-2" cx="28" cy="28" r="28"></circle>
        <path d="M0.393812155,4.48707182 C0.393812155,6.75226519 2.35491713,8.58917127 4.77480663,8.58917127 L4.77480663,8.58917127 C7.19425414,8.58917127 9.1558011,6.75226519 9.1558011,4.48707182 L9.1558011,4.48707182 C9.1558011,2.22055249 7.19425414,0.384088398 4.77480663,0.384088398 L4.77480663,0.384088398 C2.35491713,0.384088398 0.393812155,2.22055249 0.393812155,4.48707182" id="path-4"></path>
    </defs>
    <g id="H5相关" stroke="none" stroke-width="1" fill="none" fill-rule="evenodd">
        <g id="头像">
            <mask id="mask-3" fill="white">
                <use xlink:href="#path-2"></use>
            </mask>
            <use id="蒙版" fill="url(#linearGradient-1)" xlink:href="#path-2"></use>
            <g id="狗头" mask="url(#mask-3)">
                <g transform="translate(-1.000000, 5.000000)" id="编组">
                    <g transform="translate(0.000000, 0.433149)">
                        <path d="M43.1335691,0.471425414 C42.4780994,0.0400441989 41.6683757,-0.0974143646 40.9094807,0.092640884 C40.1863867,0.274740331 39.5645083,0.745458564 39.1923536,1.38987845 C38.6641768,2.17529282 33.1609724,10.5081105 32.6182099,17.446453 L33.9406409,17.5503204 L45.1304751,24.9315359 C45.1123536,24.966011 45.096,25.0000442 45.0774365,25.0345193 L47.4093702,26.2977238 C51.975116,17.8641326 51.9729061,6.28446409 43.1335691,0.471425414" id="Fill-1" fill="#282932"></path>
                        <path d="M38.4661215,18.0353149 C38.2685525,12.5546519 41.2444641,5.28967956 41.2444641,5.28967956 C41.3509834,4.80039779 41.969326,4.48702762 42.3366188,4.8278011 C46.0807072,8.30183425 46.3052376,14.1802873 44.486453,19.471779" id="Fill-3" fill="#5D5E63"></path>
                        <path d="M14.8805746,0.471425414 C15.5360442,0.0400441989 16.345768,-0.0974143646 17.104663,0.092640884 C17.8277569,0.274740331 18.4496354,0.745458564 18.8217901,1.38987845 C19.3499669,2.17529282 24.8531713,10.5081105 25.3959337,17.446453 L24.0735028,17.5503204 L12.8836685,24.9315359 C12.9017901,24.966011 12.9181436,25.0000442 12.9367072,25.0345193 L10.6047735,26.2977238 C6.03902762,17.8641326 6.04123757,6.28446409 14.8805746,0.471425414" id="Fill-5" fill="#282932"></path>
                        <path d="M19.5480221,18.0353149 C19.7455912,12.5546519 16.7696796,5.28967956 16.7696796,5.28967956 C16.6631602,4.80039779 16.0448177,4.48702762 15.6775249,4.8278011 C11.9334365,8.30183425 11.7089061,14.1802873 13.5276906,19.471779" id="Fill-7" fill="#5D5E63"></path>
                        <path d="M46.9070939,55.8827845 C46.9070939,68.7141657 38.7294144,79.1159337 28.6419006,79.1159337 C18.5543867,79.1159337 10.3771492,68.7141657 10.3771492,55.8827845 C10.3771492,43.0514033 18.5543867,32.6496354 28.6419006,32.6496354 C38.7294144,32.6496354 46.9070939,43.0514033 46.9070939,55.8827845" id="Fill-9" fill="#282932"></path>
                        <path d="M18.448442,53.7941215 L18.448442,53.7941215 C20.7843536,51.657547 20.9461215,48.0319116 18.809105,45.696 L10.4038011,36.5066077 C8.26722652,34.1706961 4.64159116,34.0084862 2.30567956,36.1455028 C-0.0306740331,38.2820773 -0.192,41.9077127 1.94457459,44.2440663 L10.3498785,53.4334586 C12.486895,55.7693702 16.1125304,55.9311381 18.448442,53.7941215" id="Fill-11" fill="#FFFDFC"></path>
                        <path d="M8.7598674,40.2305856 C9.43655249,41.0836243 8.96848619,41.9141215 8.11544751,42.5903646 C7.26240884,43.2670497 6.34749171,43.534011 5.67080663,42.6809724 C4.99412155,41.8279337 5.13732597,40.5881547 5.99036464,39.9110276 C6.84340331,39.2347845 8.08318232,39.377547 8.7598674,40.2305856" id="Fill-13" fill="#282932"></path>
                        <path d="M4.46492818,41.3381215 C4.69299448,41.6254144 4.64481768,42.0435359 4.35752486,42.2711602 C4.06979006,42.4992265 3.65255249,42.4510497 3.42448619,42.1633149 C3.19641989,41.8764641 3.24459669,41.4583425 3.5318895,41.2307182 C3.81962431,41.0026519 4.23686188,41.0512707 4.46492818,41.3381215" id="Fill-15" fill="#282932"></path>
                        <path d="M4.88640884,39.3085967 C5.11447514,39.5958895 5.06629834,40.0135691 4.77900552,40.2411934 C4.49171271,40.4697017 4.07403315,40.4215249 3.84596685,40.1337901 C3.61790055,39.8469392 3.66607735,39.4288177 3.95381215,39.2011934 C4.24110497,38.9731271 4.65834254,39.0213039 4.88640884,39.3085967" id="Fill-17" fill="#282932"></path>
                        <path d="M6.54236464,37.9951823 C6.77043094,38.2824751 6.72225414,38.7001547 6.43496133,38.927779 C6.14722652,39.1558453 5.72998895,39.1081105 5.50192265,38.8203757 C5.27385635,38.5330829 5.32203315,38.1154033 5.60932597,37.887779 C5.89706077,37.6597127 6.31429834,37.7078895 6.54236464,37.9951823" id="Fill-19" fill="#282932"></path>
                        <path d="M8.65020994,37.8013702 C8.87827624,38.088663 8.82965746,38.5067845 8.54236464,38.7344088 C8.25507182,38.9624751 7.83739227,38.9142983 7.60976796,38.6270055 C7.38170166,38.3397127 7.42987845,37.9215912 7.71717127,37.6939669 C8.00446409,37.4659006 8.42214365,37.5145193 8.65020994,37.8013702" id="Fill-21" fill="#282932"></path>
                        <path d="M21.3010829,45.295337 L12.1430718,38.4078232 C13.4650608,45.4518011 8.74682873,48.1545635 6.34771271,49.0584309 L7.48053039,50.296 C8.31942541,51.6502541 10.4630718,55.6599779 10.4789834,58.7874917 C10.4900331,60.9523536 10.9846188,58.2208619 11.3700331,55.4394254 C12.2588729,58.217768 12.3830718,62.0184309 14.1872707,60.7282652 C14.3490387,60.5863867 18.2425193,53.9419669 18.4484862,53.7943425 C20.7843978,51.657768 23.4376575,47.6312486 21.3010829,45.295337" id="Fill-25" fill="#282932"></path>
                        <path d="M38.8386298,53.7941215 L38.8386298,53.7941215 C36.5027182,51.657547 36.3409503,48.0319116 38.4779669,45.696 L46.8832707,36.5066077 C49.0198453,34.1706961 52.6454807,34.0084862 54.9813923,36.1455028 C57.3177459,38.2820773 57.4790718,41.9077127 55.3424972,44.2440663 L46.9371934,53.4334586 C44.8006188,55.7693702 41.1745414,55.9311381 38.8386298,53.7941215" id="Fill-27" fill="#FFFDFC"></path>
                        <path d="M48.5272044,40.2305856 C47.8505193,41.0836243 48.3185856,41.9141215 49.1716243,42.5903646 C50.024663,43.2670497 50.9395801,43.534011 51.6162652,42.6809724 C52.2929503,41.8279337 52.1497459,40.5881547 51.2967072,39.9110276 C50.4436685,39.2347845 49.2038895,39.377547 48.5272044,40.2305856" id="Fill-29" fill="#282932"></path>
                        <path d="M52.8221436,41.3381215 C52.5940773,41.6254144 52.6422541,42.0435359 52.929547,42.2711602 C53.2172818,42.4992265 53.6345193,42.4510497 53.8625856,42.1633149 C54.0906519,41.8764641 54.0424751,41.4583425 53.7551823,41.2307182 C53.4674475,41.0026519 53.0502099,41.0512707 52.8221436,41.3381215" id="Fill-31" fill="#282932"></path>
                        <path d="M52.400663,39.3085967 C52.1725967,39.5958895 52.2207735,40.0135691 52.5080663,40.2411934 C52.7953591,40.4697017 53.2130387,40.4215249 53.441105,40.1337901 C53.6691713,39.8469392 53.6209945,39.4288177 53.3332597,39.2011934 C53.0459669,38.9731271 52.6287293,39.0213039 52.400663,39.3085967" id="Fill-33" fill="#282932"></path>
                        <path d="M50.7447072,37.9951823 C50.5166409,38.2824751 50.5648177,38.7001547 50.8521105,38.927779 C51.1398453,39.1558453 51.5570829,39.1081105 51.7851492,38.8203757 C52.0132155,38.5330829 51.9650387,38.1154033 51.6777459,37.887779 C51.390011,37.6597127 50.9727735,37.7078895 50.7447072,37.9951823" id="Fill-35" fill="#282932"></path>
                        <path d="M48.6368177,37.8013702 C48.4087514,38.088663 48.4573702,38.5067845 48.744663,38.7344088 C49.0319558,38.9624751 49.4496354,38.9142983 49.6772597,38.6270055 C49.905326,38.3397127 49.8571492,37.9215912 49.5698564,37.6939669 C49.2825635,37.4659006 48.864884,37.5145193 48.6368177,37.8013702" id="Fill-37" fill="#282932"></path>
                        <path d="M35.9862099,45.295337 L45.143779,38.4078232 C43.8217901,45.4518011 48.5404641,48.1545635 50.9391381,49.0584309 L49.8067624,50.296 C48.9678674,51.6502541 46.824221,55.6599779 46.8083094,58.7874917 C46.7968177,60.9523536 46.302674,58.2208619 45.9168177,55.4394254 C45.0284199,58.217768 44.904221,62.0184309 43.0995801,60.7282652 C42.9382541,60.5863867 39.0447735,53.9419669 38.8388066,53.7943425 C36.502453,51.657768 33.8496354,47.6312486 35.9862099,45.295337" id="Fill-41" fill="#282932"></path>
                        <path d="M40.9160663,59.9081547 C40.9160663,70.3479337 35.3218122,78.8115801 28.4210387,78.8115801 C21.5198232,78.8115801 15.9255691,70.3479337 15.9255691,59.9081547 C15.9255691,49.4679337 21.5198232,41.0042873 28.4210387,41.0042873 C35.3218122,41.0042873 40.9160663,49.4679337 40.9160663,59.9081547" id="Fill-43" fill="#FFFFFF"></path>
                        <path d="M48.4563978,29.2671823 C48.4563978,39.9725967 39.5887735,46.3001105 28.6420331,46.5374586 C17.6948508,46.3001105 8.82766851,39.9725967 8.82766851,29.2671823 C8.82766851,18.7809945 17.4420331,7.22607735 28.6420331,7.04883978 C39.8420331,7.22563536 48.4568398,18.7809945 48.4563978,29.2671823" id="Fill-45" fill="#282932"></path>
                        <path d="M46.3951823,28.6063646 C46.1481105,25.7029392 42.6590497,23.8929945 40.3204862,21.0620552 C37.8824751,18.110011 34.5454586,12.0781878 32.6205967,12.0781878 C30.567116,12.0781878 30.0535249,18.8799558 28.6418122,18.751779 C27.2305414,18.8799558 26.7169503,12.0781878 24.6634696,12.0781878 C22.7386077,12.0781878 19.4015912,18.110011 16.9631381,21.0620552 C14.6245746,23.8929945 11.1359558,25.7029392 10.888884,28.6063646 C10.2387182,36.2492376 20.9070055,44.5276906 28.6418122,44.5276906 C36.3770608,44.5276906 47.0453481,36.2492376 46.3951823,28.6063646" id="Fill-47" fill="#FFFDFC"></path>
                        <path d="M38.3828066,22.6671381 C38.3567293,23.5055912 37.2689945,23.2991823 35.9204862,23.2576354 C34.5719779,23.2156464 33.4577238,23.8649282 33.4992707,22.5164199 C33.5408177,21.1679116 34.6678895,20.1084641 36.0163978,20.150011 C37.3649061,20.191558 38.4243536,21.3186298 38.3828066,22.6671381" id="Fill-49" fill="#282932"></path>
                        <path d="M23.7425856,22.6671381 C23.7165083,23.5055912 22.6287735,23.2991823 21.2802652,23.2576354 C19.9317569,23.2156464 18.8175028,23.8649282 18.8590497,22.5164199 C18.9005967,21.1679116 20.0276685,20.1084641 21.3761768,20.150011 C22.7246851,20.191558 23.7841326,21.3186298 23.7425856,22.6671381" id="Fill-51" fill="#282932"></path>
                        <path d="M32.2185193,27.3412597 C32.2185193,29.3165083 30.6171934,30.7171713 28.6419448,30.7171713 C26.7829392,30.7171713 25.0653702,29.3165083 25.0653702,27.3412597 C25.0653702,25.366011 26.6666961,25.9790497 28.6419448,25.9790497 C30.6171934,25.9790497 32.2185193,25.366011 32.2185193,27.3412597" id="Fill-53" fill="#282932"></path>
                        <path d="M33.0228508,36.7520884 C33.0228508,39.0177238 31.0617459,40.8541878 28.6418564,40.8541878 C26.2224088,40.8541878 24.2613039,39.0177238 24.2613039,36.7520884 C24.2613039,34.486011 26.2224088,32.649547 28.6418564,32.649547 C31.0617459,32.649547 33.0228508,34.486011 33.0228508,36.7520884" id="Fill-55" fill="#521E1D"></path>
                    </g>
                    <g transform="translate(23.867403, 32.698343)">
                        <mask id="mask-5" fill="white">
                            <use xlink:href="#path-4"></use>
                        </mask>
                        <g id="Clip-58"></g>
                        <path d="M9.15544751,8.65122652 C9.15544751,10.6459227 7.19434254,12.2627182 4.77445304,12.2627182 C2.35500552,12.2627182 0.393900552,10.6459227 0.393900552,8.65122652 C0.393900552,6.6560884 2.35500552,5.03929282 4.77445304,5.03929282 C7.19434254,5.03929282 9.15544751,6.6560884 9.15544751,8.65122652" id="Fill-57" fill="#F41919" mask="url(#mask-5)"></path>
                    </g>
                    <g transform="translate(15.027624, 28.720442)" opacity="0.400000006">
                        <path d="M6.27323757,3.12163536 C6.27323757,4.83655249 4.88274033,6.22704972 3.1678232,6.22704972 C1.45246409,6.22704972 0.0619668508,4.83655249 0.0619668508,3.12163536 C0.0619668508,1.40627624 1.45246409,0.0157790055 3.1678232,0.0157790055 C4.88274033,0.0157790055 6.27323757,1.40627624 6.27323757,3.12163536" id="Fill-59" fill="#FCA27E"></path>
                        <path d="M27.6004862,3.12163536 C27.6004862,4.83655249 26.209989,6.22704972 24.4950718,6.22704972 C22.7797127,6.22704972 21.3892155,4.83655249 21.3892155,3.12163536 C21.3892155,1.40627624 22.7797127,0.0157790055 24.4950718,0.0157790055 C26.209989,0.0157790055 27.6004862,1.40627624 27.6004862,3.12163536" id="Fill-61" fill="#FCA27E"></path>
                    </g>
                </g>
            </g>
        </g>
    </g>
</svg>