<?xml version="1.0" encoding="UTF-8"?>
<svg width="248px" height="40px" viewBox="0 0 248 40" version="1.1" xmlns="http://www.w3.org/2000/svg" xmlns:xlink="http://www.w3.org/1999/xlink">
    <title>横排白版</title>
    <g id="HUB-LOGO" stroke="none" stroke-width="1" fill="none" fill-rule="evenodd">
        <g id="HUB-新LOGO" transform="translate(-431.000000, -192.000000)" fill="#FFE49A">
            <g id="横排白版" transform="translate(431.000000, 192.000000)">
                <g id="文字" transform="translate(49.571094, 9.294580)">
                    <polygon id="Fill-1" points="0 0.301260577 3.70698836 0.301260577 3.70698836 9.07147145 13.7726313 9.07147145 13.7726313 0.301260577 17.4796197 0.301260577 17.4796197 21.3976338 13.7726313 21.3976338 13.7726313 12.5069806 3.70698836 12.5069806 3.70698836 21.3976338 0 21.3976338"></polygon>
                    <path d="M34.0903511,13.0193056 L30.4433902,4.58060144 L26.827024,13.0193056 L34.0903511,13.0193056 Z M28.786244,0.150572198 L32.2217532,0.150572198 L41.5043278,21.397595 L37.586275,21.397595 L35.4465852,16.3041651 L25.4711771,16.3041651 L23.3008927,21.397595 L19.5036694,21.397595 L28.786244,0.150572198 Z" id="Fill-2"></path>
                    <path d="M42.2773658,18.3234901 L44.5076777,15.6710493 C46.5269252,17.4192049 48.5763801,18.413725 51.1680189,18.413725 C53.4583583,18.413725 54.9048274,17.32897 54.9048274,15.7616715 L54.9048274,15.7012567 C54.9048274,14.1947602 54.0613442,13.3807099 50.1432914,12.4764247 C45.6528474,11.392057 43.1212362,10.0660302 43.1212362,6.17818485 L43.1212362,6.1173828 C43.1212362,2.50140387 46.1350038,0 50.3241485,0 C53.3983308,0 55.8393199,0.9341053 57.9790097,2.65166625 L55.9899696,5.4547567 C54.0911643,4.03810778 52.1927464,3.28485952 50.2637337,3.28485952 C48.0942238,3.28485952 46.8282245,4.39982185 46.8282245,5.78626339 L46.8282245,5.84629088 C46.8282245,7.47361695 47.7925372,8.19743237 51.8612397,9.16174506 C56.3214763,10.2468873 58.6118157,11.844006 58.6118157,15.3399299 L58.6118157,15.3999574 C58.6118157,19.3482176 55.5078133,21.6989718 51.077784,21.6989718 C47.8525647,21.6989718 44.808977,20.5836222 42.2773658,18.3234901" id="Fill-3"></path>
                    <polygon id="Fill-5" points="61.6369305 0.301260577 65.3439188 0.301260577 65.3439188 9.07147145 75.4095618 9.07147145 75.4095618 0.301260577 79.1165502 0.301260577 79.1165502 21.3976338 75.4095618 21.3976338 75.4095618 12.5069806 65.3439188 12.5069806 65.3439188 21.3976338 61.6369305 21.3976338"></polygon>
                    <polygon id="Fill-7" points="94.0325698 0.301260577 109.673799 0.301260577 109.673799 3.61632748 97.7395581 3.61632748 97.7395581 9.10167883 108.317952 9.10167883 108.317952 12.4163585 97.7395581 12.4163585 97.7395581 18.0821796 109.824449 18.0821796 109.824449 21.3976338 94.0325698 21.3976338"></polygon>
                    <polygon id="Fill-9" points="119.521949 13.0794106 111.143659 0.301299305 115.543868 0.301299305 121.420754 9.61369401 127.387874 0.301299305 131.637434 0.301299305 123.258757 12.9891757 123.258757 21.3976725 119.521949 21.3976725"></polygon>
                    <polygon id="Fill-11" points="137.000136 0.301260577 140.707124 0.301260577 140.707124 9.07147145 150.772767 9.07147145 150.772767 0.301260577 154.480143 0.301260577 154.480143 21.3976338 150.772767 21.3976338 150.772767 12.5069806 140.707124 12.5069806 140.707124 21.3976338 137.000136 21.3976338"></polygon>
                    <path d="M158.480995,12.446682 L158.480995,0.30137676 L162.187983,0.30137676 L162.187983,12.2956451 C162.187983,16.2140852 164.20723,18.2933602 167.522297,18.2933602 C170.807157,18.2933602 172.826404,16.3341402 172.826404,12.446682 L172.826404,0.30137676 L176.533393,0.30137676 L176.533393,12.265825 C176.533393,18.5644521 172.977441,21.7292566 167.461883,21.7292566 C161.976918,21.7292566 158.480995,18.5644521 158.480995,12.446682" id="Fill-13"></path>
                    <path d="M190.05782,12.3260461 L184.180934,12.3260461 L184.180934,18.1123095 L190.328912,18.1123095 C192.860523,18.1123095 194.397614,17.1177894 194.397614,15.2193715 L194.397614,15.1589567 C194.397614,13.380981 192.981353,12.3260461 190.05782,12.3260461 L190.05782,12.3260461 Z M193.222237,6.26830355 C193.222237,4.61077009 191.896211,3.58642991 189.515636,3.58642991 L184.180934,3.58642991 L184.180934,9.19183626 L189.24377,9.19183626 C191.625119,9.19183626 193.222237,8.25734369 193.222237,6.32871832 L193.222237,6.26830355 Z M180.534361,0.301183123 L189.997793,0.301183123 C192.408574,0.301183123 194.30738,0.964196503 195.512577,2.16939372 C196.447069,3.10427357 196.929226,4.24944329 196.929226,5.66570494 L196.929226,5.72573243 C196.929226,8.25734369 195.482757,9.61357783 193.915458,10.4276281 C196.386655,11.2711113 198.104215,12.6877602 198.104215,15.5508781 L198.104215,15.6109056 C198.104215,19.3783088 195.0006,21.3975563 190.298705,21.3975563 L180.534361,21.3975563 L180.534361,0.301183123 Z" id="Fill-15"></path>
                    <g id="腿" transform="translate(80.153244, 0.283988)">
                        <polygon id="Fill-27" points="6.61038282 15.5305463 2.83639603 11.7232539 0 14.4787096 1.08010766 15.5305463"></polygon>
                        <polygon id="Fill-29" points="1.07999148 15.5305463 3.84512906 18.2960711 6.61026664 15.5305463"></polygon>
                        <polygon id="Fill-31" points="9.37555913 18.2959549 6.61042155 15.5304301 3.84489669 18.2959549"></polygon>
                        <polygon id="Fill-33" points="3.84497415 18.2959549 6.610499 21.0614798 9.37563658 18.2959549"></polygon>
                        <polygon id="Fill-35" points="6.61073137 21.0613249 12.1410065 21.0613249 9.37548167 18.2954127"></polygon>
                        <polygon id="Fill-37" points="0.138450516 6.59411731 6.69577678 0 11.9243654 0 2.78972949 9.24771992"></polygon>
                    </g>
                </g>
                <path d="M29.8081056,21.8716961 L30.0753793,21.8755639 C34.9581929,22.0170563 38.8769049,26.0226666 38.8769049,30.9308135 L38.8769049,30.9308135 L38.8769049,30.9404953 L38.8730363,31.2072399 C38.7315145,36.0805409 34.7250008,40 29.8081056,40 L29.8081056,40 L26.3501346,40 L26.3501346,39.9996127 L26.5568829,39.7427299 C27.7703805,38.1792911 28.4936971,36.2213659 28.4936971,34.0882598 L28.4936971,34.0882598 L28.4936971,21.8716961 L29.8081056,21.8716961 Z M10.3282149,21.8891234 L10.3282149,34.0936816 L10.334869,34.4472859 C10.4144783,36.5586753 11.2040864,38.4818037 12.4702283,40 L12.4702283,40 L4.73287764,40 L4.51624868,39.9951293 C2.00308929,39.8818871 0.000387274171,37.8082326 0.000387274171,35.2671224 L0.000387274171,35.2671224 L0.000387274171,21.8891234 L10.3282149,21.8891234 Z M25.0388242,0.227329938 L25.0388242,34.0936816 L25.0347516,34.3623446 C24.918344,38.16729 22.3211453,40 19.1328931,40 L19.1328931,40 L19.0236871,39.9980083 C17.3441215,39.937992 13.8376934,38.5096174 13.8376934,34.0936816 L13.8376934,34.0936816 L13.8376934,0.227329938 L25.0388242,0.227329938 Z M29.1570978,0 L29.4337526,0.00340053248 C34.6723773,0.132398148 38.8769049,3.91879395 38.8769049,9.19272699 L38.8769049,9.19272699 L38.8730397,9.46891648 C38.7264883,14.6899616 34.4310308,18.3846794 29.1570978,18.3846794 L29.1570978,18.3846794 L28.9354765,18.3825136 C28.7876812,18.3793867 28.6398286,18.3724158 28.492148,18.3587321 L28.492148,18.3587321 L28.492148,0.0267219178 C28.7136688,0.00580911256 28.9355769,0 29.1570978,0 L29.1570978,0 Z M10.3278276,0.227329938 L10.3278276,18.158124 L0,18.158124 L0,0.227329938 L10.3278276,0.227329938 Z" id="LOGO"></path>
            </g>
        </g>
    </g>
</svg>